# xmcd
#
# Track frame offsets:
# 150
# 16934
# 28480
# 37955
# 46598
# 56497
# 67471
# 82932
# 92136
# 104655
# 117025
# 130066
# 144772
# 157720
# 169844
# 183075
# 197022
# 209529
# 222563
# 235495
#
# Disc length: 3292 seconds
#
# Revision: 0
# Processed by: cddbd v1.4PL0 Copyright (c) Steve Scherf et al.
# Submitted via: Audion 2.5.0 (http://www.panic.com/audion/)
#
DISCID=150cda14
DTITLE=Leo Diamond - Skin Diver Suite And Other selections
DYEAR=1900
DGENRE=
TTITLE0=The Skin Divers 1
TTITLE1=The Skin Divers 2
TTITLE2=The Skin Divers 3
TTITLE3=The Skin Divers 4
TTITLE4=The Skin Divers 5
TTITLE5=The Skin Divers 6
TTITLE6=The Skin Divers 7
TTITLE7=The Skin Divers 8
TTITLE8=Dinner Music For A Pack Of Hungry Cannibals
TTITLE9=An Eighteenth century Drawing Room
TTITLE10=Siberian Sleigh Ride
TTITLE11=Wreckless Night Aboard An Ocean Liner
TTITLE12=Minuet in Jazz
TTITLE13=Twilight in Turkey
TTITLE14=Power House
TTITLE15=The Toy Trumpet
TTITLE16=The Penguin
TTITLE17=Boy Scout In Switzland
TTITLE18=The Happy farmer
TTITLE19=War Dance for Wooden Indians
EXTD=
EXTT0=
EXTT1=
EXTT2=
EXTT3=
EXTT4=
EXTT5=
EXTT6=
EXTT7=
EXTT8=
EXTT9=
EXTT10=
EXTT11=
EXTT12=
EXTT13=
EXTT14=
EXTT15=
EXTT16=
EXTT17=
EXTT18=
EXTT19=
PLAYORDER=
